<?xml version="1.0" encoding="UTF-8" standalone="no"?>
<!-- Created with Inkscape (http://www.inkscape.org/) -->

<svg
   width="209.50482mm"
   height="418.64856mm"
   viewBox="0 0 209.50482 418.64856"
   version="1.1"
   id="svg1"
   xmlns="http://www.w3.org/2000/svg"
   xmlns:svg="http://www.w3.org/2000/svg">
  <defs
     id="defs1" />
  <g
     id="layer1"
     transform="translate(-225.41014,41.424845)">
    <path
       style="fill:none;stroke:#000000;stroke-width:13.2292;stroke-linecap:round;stroke-linejoin:round"
       d="m 14.5629,4.8543006 c 42.573705,4.6534338 84.161165,18.1462564 121.3575,39.3737724 15.38307,8.778942 30.56599,19.449317 39.06387,34.989423 4.24894,7.770053 6.65804,16.658049 6.10708,25.496804 -0.55096,8.83876 -4.20015,17.58805 -10.65147,23.65498 -5.92694,5.57378 -13.913,8.65817 -21.99775,9.57058 -8.08474,0.91241 -16.28872,-0.22981 -24.16413,-2.27274 -15.75081,-4.08588 -30.539268,-11.75228 -46.609195,-14.30961 -8.759347,-1.39394 -17.823794,-1.21525 -26.391951,1.07734 -8.568156,2.29258 -16.622867,6.7503 -22.722146,13.18986 -6.099279,6.43957 -10.159987,14.89744 -10.827741,23.74184 -0.667755,8.8444 2.186083,18.00386 8.162634,24.55749 4.387491,4.81114 10.294916,8.11624 16.571205,9.84981 6.276289,1.73358 12.912599,1.94454 19.374469,1.1437 12.923738,-1.60167 24.98039,-7.11434 36.967432,-12.20347 11.987043,-5.08913 24.482693,-9.88996 37.505243,-9.93088 6.51127,-0.0204 13.08112,1.19058 18.94496,4.02122 5.86384,2.83064 10.99198,7.33549 14.10824,13.05266 2.22328,4.07889 3.39372,8.71411 3.46346,13.35905 0.0697,4.64494 -0.9535,9.293 -2.88538,13.51771 -3.86376,8.44941 -11.34828,15.03144 -19.99528,18.43005 -12.18752,4.79017 -25.91745,3.4194 -38.68112,0.49196 -12.76367,-2.92744 -25.26409,-7.34435 -38.30815,-8.49922 -21.5999,-1.91237 -43.872123,5.72602 -59.754712,20.48936 -11.6944936,10.87038 -20.0398501,25.90813 -20.6517476,41.86281 -0.3059488,7.97734 1.3344117,16.06169 5.0132034,23.14675 3.6787916,7.08506 9.4219921,13.13341 16.4621092,16.8975 5.949368,3.1809 12.720193,4.69871 19.465854,4.79457 6.745661,0.0959 13.46987,-1.20029 19.852479,-3.38556 12.765217,-4.37056 24.031925,-12.17129 35.013953,-20.01014 10.982027,-7.83886 22.013931,-15.89482 34.548321,-20.889 6.26719,-2.49708 12.88544,-4.2019 19.61975,-4.60458 6.73431,-0.40268 13.59195,0.52291 19.82549,3.10284 6.74539,2.79178 12.65684,7.49763 17.06042,13.32024 4.40359,5.82261 7.30864,12.73871 8.59432,19.9249 2.57137,14.37237 -1.42791,29.50287 -9.46291,41.69368 -8.03499,12.19082 -19.86344,21.5796 -32.88201,28.18974 -13.01858,6.61014 -27.23239,10.57186 -41.56143,13.37466 -36.409216,7.12175 -74.232166,6.93725 -110.5701704,-0.53937"
       id="path1"
       transform="translate(239.51283,-39.664545)" />
  </g>
</svg>
